<?xml version="1.0" encoding="UTF-8"?>
<svg width="100pt" height="100pt" version="1.1" viewBox="0 0 100 100" xmlns="http://www.w3.org/2000/svg">
 <path d="m80.941 34.098v27.902c0 1.7109-0.69922 3.2617-1.8242 4.3906-1.1289 1.1289-2.6836 1.8281-4.3945 1.8281h-40.801v5.8047c0 1.1602 0.47656 2.2148 1.2383 2.9805 0.76562 0.76562 1.8203 1.2383 2.9766 1.2383h39.922c0.32812 0 0.61719 0.16016 0.80078 0.40234l7.6172 8.6914-0.73047-8.0039c-0.046875-0.54688 0.35547-1.0352 0.90234-1.082l4.1289-0.007812c1.1602 0 2.2188-0.47266 2.9766-1.2344 0.76562-0.76953 1.2383-1.8242 1.2383-2.9844v-35.707c0-1.1602-0.47656-2.2148-1.2656-3.0078-0.78125-0.75781-1.8164-1.2148-2.9531-1.2148h-9.8398zm-65.746 43.473 9.5938-10.949c0.18359-0.24609 0.47656-0.40234 0.80078-0.40234h49.129c1.1602 0 2.2188-0.47656 2.9805-1.2383 0.76172-0.76562 1.2383-1.8203 1.2383-2.9805v-45.121c0-1.1602-0.47656-2.2148-1.2383-2.9805-0.76562-0.76172-1.8203-1.2383-2.9805-1.2383h-65.504c-1.1602 0-2.2188 0.47656-2.9805 1.2383-0.76172 0.76562-1.2383 1.8203-1.2383 2.9805v45.121c0 1.1602 0.47656 2.2188 1.2383 2.9805 0.76562 0.76172 1.8203 1.2383 2.9805 1.2383l6.0156 0.007812c0.54688 0.046876 0.94922 0.53516 0.90234 1.082zm7.2812-40.566c0.62109 0.62109 1.0078 1.4844 1.0078 2.4375 0 0.94922-0.38672 1.8125-1.0117 2.4336-0.62109 0.62109-1.4844 1.0117-2.4336 1.0117-0.95312 0-1.8164-0.38672-2.4414-1.0117-0.62109-0.61719-1.0039-1.4805-1.0039-2.4336s0.38672-1.8125 1.0078-2.4375c0.62109-0.62109 1.4844-1.0078 2.4375-1.0078 0.95313 0 1.8164 0.38672 2.4375 1.0078zm43.867 0c0.62109 0.62109 1.0078 1.4844 1.0078 2.4375s-0.38672 1.8164-1.0117 2.4336c-0.62109 0.62109-1.4844 1.0117-2.4336 1.0117-0.95312 0-1.8164-0.38672-2.4375-1.0117-0.62109-0.62109-1.0117-1.4844-1.0117-2.4336 0-0.95312 0.38672-1.8164 1.0117-2.4414 0.61719-0.62109 1.4805-1.0039 2.4375-1.0039 0.95312 0 1.8164 0.38672 2.4375 1.0078zm-21.934 0c0.62109 0.625 1.0078 1.4844 1.0078 2.4375s-0.38672 1.8164-1.0117 2.4414c-0.61719 0.62109-1.4805 1.0039-2.4336 1.0039-0.94922 0-1.8125-0.38672-2.4609-1.0352-0.61719-0.64062-0.98438-1.4805-0.98438-2.4102 0-0.95312 0.38672-1.8164 1.0117-2.4414 0.61719-0.62109 1.4805-1.0039 2.4336-1.0039s1.8164 0.38672 2.4375 1.0078z"/>
</svg>
