<?xml version="1.0" standalone="no"?>
<!DOCTYPE svg PUBLIC "-//W3C//DTD SVG 20010904//EN"
 "http://www.w3.org/TR/2001/REC-SVG-20010904/DTD/svg10.dtd">
<svg version="1.0" xmlns="http://www.w3.org/2000/svg"
 width="512.000000pt" height="512.000000pt" viewBox="0 0 512.000000 512.000000"
 preserveAspectRatio="xMidYMid meet">
<metadata>
Created by potrace 1.14, written by Peter Selinger 2001-2017
</metadata>
<g transform="translate(0.000000,512.000000) scale(0.100000,-0.100000)"
fill="#000000" stroke="none">
<path d="M474 4402 c-43 -14 -94 -58 -119 -104 l-25 -46 2 -1184 3 -1183 25
-35 c62 -88 94 -98 312 -99 217 -1 212 2 204 -115 -3 -45 -10 -124 -16 -176
-5 -52 -12 -122 -15 -155 -3 -33 -7 -73 -9 -89 -4 -29 -3 -28 43 20 25 27 75
83 111 124 36 41 69 80 75 86 5 6 33 37 60 69 71 82 73 85 144 164 l63 71
1246 0 c946 0 1254 3 1285 12 48 14 100 64 123 116 15 34 17 145 18 1192 1
961 -1 1162 -12 1198 -16 49 -58 94 -113 122 -38 20 -68 20 -1711 19 -920 -1
-1682 -4 -1694 -7z m667 -1166 c109 -46 137 -180 58 -271 -56 -63 -156 -72
-224 -21 -46 36 -67 79 -67 138 0 118 124 200 233 154z m1098 -4 c103 -52 128
-183 52 -265 -36 -40 -68 -54 -126 -55 -40 -2 -58 3 -90 26 -40 27 -71 76 -78
122 -6 33 17 107 40 132 49 55 139 73 202 40z m1082 4 c168 -70 117 -326 -64
-326 -97 0 -168 73 -170 172 -1 117 124 200 234 154z"/>
<path d="M4105 3325 c-2 -11 -3 -330 -3 -710 0 -513 -3 -702 -12 -735 -24 -89
-82 -158 -170 -202 l-45 -23 -1055 -5 -1054 -5 -1 -154 c0 -92 5 -170 12 -195
15 -50 63 -102 118 -127 38 -18 94 -19 1062 -19 l1022 0 38 -42 c21 -23 45
-49 53 -58 8 -9 58 -65 110 -125 52 -61 109 -126 126 -145 18 -19 41 -46 52
-59 l19 -25 -2 35 c-6 80 -16 186 -20 209 -2 14 -6 62 -7 108 -2 65 0 85 12
92 8 5 69 10 135 11 66 0 128 2 138 4 34 6 82 33 109 62 62 65 59 16 59 1022
0 504 -3 930 -7 946 -13 52 -52 103 -101 132 l-47 27 -268 1 c-262 1 -269 0
-273 -20z"/>
</g>
</svg>
